<?xml version="1.0" encoding="UTF-8"?>
<!DOCTYPE svg PUBLIC "-//W3C//DTD SVG 1.1//EN" "http://www.w3.org/Graphics/SVG/1.1/DTD/svg11.dtd">
<svg xmlns="http://www.w3.org/2000/svg" version="1.1" width="394px" height="394px" style="shape-rendering:geometricPrecision; text-rendering:geometricPrecision; image-rendering:optimizeQuality; fill-rule:evenodd; clip-rule:evenodd" xmlns:xlink="http://www.w3.org/1999/xlink">
<g><path style="opacity:0.993" fill="#000000" d="M 176.5,-0.5 C 189.833,-0.5 203.167,-0.5 216.5,-0.5C 301.585,12.0815 358.085,59.0815 386,140.5C 389.269,152.482 391.769,164.482 393.5,176.5C 393.5,189.833 393.5,203.167 393.5,216.5C 380.919,301.585 333.919,358.085 252.5,386C 240.518,389.269 228.518,391.769 216.5,393.5C 203.167,393.5 189.833,393.5 176.5,393.5C 91.4147,380.919 34.9147,333.919 7,252.5C 3.73084,240.518 1.23084,228.518 -0.5,216.5C -0.5,203.167 -0.5,189.833 -0.5,176.5C 12.0815,91.4147 59.0815,34.9147 140.5,7C 152.482,3.73084 164.482,1.23084 176.5,-0.5 Z"/></g>
<g><path style="opacity:1" fill="#44e086" d="M 306.5,105.5 C 303.369,105.298 300.202,105.298 297,105.5C 296.055,105.095 295.388,104.428 295,103.5C 294.692,104.308 294.192,104.975 293.5,105.5C 293.167,104.833 292.833,104.167 292.5,103.5C 291.459,105.991 290.626,105.991 290,103.5C 283.112,103.603 276.445,103.937 270,104.5C 267.667,103.833 265.333,103.167 263,102.5C 262.667,103.167 262.333,103.833 262,104.5C 260.921,102.606 259.587,102.273 258,103.5C 257.309,101.109 256.309,101.109 255,103.5C 253.667,102.167 252.333,102.167 251,103.5C 248.667,102.833 246.333,102.167 244,101.5C 242.853,102.458 241.853,102.125 241,100.5C 239.667,103.167 238.333,103.167 237,100.5C 235.667,101.833 234.333,101.833 233,100.5C 232.374,102.991 231.541,102.991 230.5,100.5C 227.181,101.493 223.681,101.826 220,101.5C 219.333,100.833 218.667,100.167 218,99.5C 216.333,100.833 214.667,100.833 213,99.5C 212.667,100.167 212.333,100.833 212,101.5C 210,100.833 208,100.167 206,99.5C 200.678,99.6722 195.344,99.6722 190,99.5C 189.283,98.9558 188.783,98.2891 188.5,97.5C 193.394,96.0389 198.394,94.8722 203.5,94C 237.832,93.5 272.165,93.3333 306.5,93.5C 306.5,97.5 306.5,101.5 306.5,105.5 Z"/></g>
<g><path style="opacity:1" fill="#46e28f" d="M 188.5,97.5 C 188.783,98.2891 189.283,98.9558 190,99.5C 195.344,99.6722 200.678,99.6722 206,99.5C 208,100.167 210,100.833 212,101.5C 212.333,100.833 212.667,100.167 213,99.5C 214.667,100.833 216.333,100.833 218,99.5C 218.667,100.167 219.333,100.833 220,101.5C 223.681,101.826 227.181,101.493 230.5,100.5C 231.541,102.991 232.374,102.991 233,100.5C 234.333,101.833 235.667,101.833 237,100.5C 238.333,103.167 239.667,103.167 241,100.5C 241.853,102.125 242.853,102.458 244,101.5C 246.333,102.167 248.667,102.833 251,103.5C 252.333,102.167 253.667,102.167 255,103.5C 256.309,101.109 257.309,101.109 258,103.5C 259.587,102.273 260.921,102.606 262,104.5C 262.333,103.833 262.667,103.167 263,102.5C 265.333,103.167 267.667,103.833 270,104.5C 276.445,103.937 283.112,103.603 290,103.5C 290.626,105.991 291.459,105.991 292.5,103.5C 292.833,104.167 293.167,104.833 293.5,105.5C 294.192,104.975 294.692,104.308 295,103.5C 295.388,104.428 296.055,105.095 297,105.5C 300.202,105.298 303.369,105.298 306.5,105.5C 306.5,110.5 306.5,115.5 306.5,120.5C 305.213,119.232 304.213,119.565 303.5,121.5C 302.808,120.975 302.308,120.308 302,119.5C 300.983,122.028 299.816,122.028 298.5,119.5C 292.362,120.136 285.862,120.136 279,119.5C 277.684,116.972 276.517,116.972 275.5,119.5C 273.452,118.917 271.619,118.917 270,119.5C 268.667,118.833 267.333,118.167 266,117.5C 263.398,117.899 260.898,117.899 258.5,117.5C 257.252,118.04 256.085,118.707 255,119.5C 254.683,117.699 254.016,117.366 253,118.5C 250.535,116.575 247.868,116.575 245,118.5C 244.333,117.833 243.667,117.167 243,116.5C 240.883,117.343 238.55,117.677 236,117.5C 234.112,115.078 232.112,115.078 230,117.5C 226.338,117.249 222.504,116.583 218.5,115.5C 217.522,115.977 216.689,116.643 216,117.5C 215.009,116.061 213.676,115.061 212,114.5C 211.026,116.878 210.359,116.544 210,113.5C 209.612,114.428 208.945,115.095 208,115.5C 204.396,114.699 201.063,114.699 198,115.5C 196.846,113.043 195.512,113.043 194,115.5C 193.667,114.833 193.333,114.167 193,113.5C 191.127,112.911 189.46,113.578 188,115.5C 185.912,114.692 183.912,113.692 182,112.5C 180.084,115.033 178.084,115.033 176,112.5C 175.667,113.167 175.333,113.833 175,114.5C 171.751,112.711 168.418,112.378 165,113.5C 164.536,112.906 164.369,112.239 164.5,111.5C 171.54,105.309 179.54,100.643 188.5,97.5 Z"/></g>
<g><path style="opacity:1" fill="#46dd91" d="M 164.5,111.5 C 164.369,112.239 164.536,112.906 165,113.5C 168.418,112.378 171.751,112.711 175,114.5C 175.333,113.833 175.667,113.167 176,112.5C 178.084,115.033 180.084,115.033 182,112.5C 183.912,113.692 185.912,114.692 188,115.5C 189.46,113.578 191.127,112.911 193,113.5C 193.333,114.167 193.667,114.833 194,115.5C 195.512,113.043 196.846,113.043 198,115.5C 201.063,114.699 204.396,114.699 208,115.5C 208.945,115.095 209.612,114.428 210,113.5C 210.359,116.544 211.026,116.878 212,114.5C 213.676,115.061 215.009,116.061 216,117.5C 216.689,116.643 217.522,115.977 218.5,115.5C 222.504,116.583 226.338,117.249 230,117.5C 232.112,115.078 234.112,115.078 236,117.5C 238.55,117.677 240.883,117.343 243,116.5C 243.667,117.167 244.333,117.833 245,118.5C 247.868,116.575 250.535,116.575 253,118.5C 254.016,117.366 254.683,117.699 255,119.5C 256.085,118.707 257.252,118.04 258.5,117.5C 260.898,117.899 263.398,117.899 266,117.5C 267.333,118.167 268.667,118.833 270,119.5C 271.619,118.917 273.452,118.917 275.5,119.5C 276.517,116.972 277.684,116.972 279,119.5C 285.862,120.136 292.362,120.136 298.5,119.5C 299.816,122.028 300.983,122.028 302,119.5C 302.308,120.308 302.808,120.975 303.5,121.5C 304.213,119.565 305.213,119.232 306.5,120.5C 306.5,124.833 306.5,129.167 306.5,133.5C 305.194,133.879 303.861,134.212 302.5,134.5C 301.833,133.833 301.167,133.167 300.5,132.5C 297.898,133.495 295.065,133.828 292,133.5C 290.333,132.833 288.667,132.167 287,131.5C 283.736,131.342 280.736,131.675 278,132.5C 274.614,131.913 271.28,131.246 268,130.5C 266.209,132.513 264.875,132.513 264,130.5C 258.422,131.98 252.755,131.646 247,129.5C 246.333,132.167 245.667,132.167 245,129.5C 243.601,129.501 242.101,129.835 240.5,130.5C 238.833,129.833 237.167,129.167 235.5,128.5C 229.265,128.735 223.265,128.735 217.5,128.5C 216.808,129.025 216.308,129.692 216,130.5C 215.149,127.388 213.983,127.054 212.5,129.5C 209.457,127.423 206.624,127.09 204,128.5C 202.598,126.027 201.098,126.027 199.5,128.5C 199.167,127.833 198.833,127.167 198.5,126.5C 196.608,129.044 194.775,129.044 193,126.5C 191.318,126.807 189.652,127.14 188,127.5C 186.527,127.097 185.194,126.43 184,125.5C 182.084,128.033 180.084,128.033 178,125.5C 177.667,126.167 177.333,126.833 177,127.5C 173.751,125.711 170.418,125.378 167,126.5C 166.667,125.833 166.333,125.167 166,124.5C 165.612,125.428 164.945,126.095 164,126.5C 159.177,125.55 154.677,124.883 150.5,124.5C 155.141,120.195 159.807,115.861 164.5,111.5 Z"/></g>
<g><path style="opacity:1" fill="#46d794" d="M 150.5,124.5 C 154.677,124.883 159.177,125.55 164,126.5C 164.945,126.095 165.612,125.428 166,124.5C 166.333,125.167 166.667,125.833 167,126.5C 170.418,125.378 173.751,125.711 177,127.5C 177.333,126.833 177.667,126.167 178,125.5C 180.084,128.033 182.084,128.033 184,125.5C 185.194,126.43 186.527,127.097 188,127.5C 189.652,127.14 191.318,126.807 193,126.5C 194.775,129.044 196.608,129.044 198.5,126.5C 198.833,127.167 199.167,127.833 199.5,128.5C 201.098,126.027 202.598,126.027 204,128.5C 206.624,127.09 209.457,127.423 212.5,129.5C 213.983,127.054 215.149,127.388 216,130.5C 216.308,129.692 216.808,129.025 217.5,128.5C 223.265,128.735 229.265,128.735 235.5,128.5C 237.167,129.167 238.833,129.833 240.5,130.5C 242.101,129.835 243.601,129.501 245,129.5C 245.667,132.167 246.333,132.167 247,129.5C 252.755,131.646 258.422,131.98 264,130.5C 264.875,132.513 266.209,132.513 268,130.5C 271.28,131.246 274.614,131.913 278,132.5C 280.736,131.675 283.736,131.342 287,131.5C 288.667,132.167 290.333,132.833 292,133.5C 295.065,133.828 297.898,133.495 300.5,132.5C 301.167,133.167 301.833,133.833 302.5,134.5C 303.861,134.212 305.194,133.879 306.5,133.5C 306.5,137.833 306.5,142.167 306.5,146.5C 302.54,145.911 298.374,145.911 294,146.5C 292.333,145.833 290.667,145.167 289,144.5C 287.204,145.767 285.371,145.767 283.5,144.5C 282.483,147.028 281.316,147.028 280,144.5C 278.417,144.493 276.751,144.826 275,145.5C 274,144.833 273,144.167 272,143.5C 270.34,143.324 268.674,143.991 267,145.5C 266.196,144.196 265.029,143.529 263.5,143.5C 256.479,143.578 249.479,143.578 242.5,143.5C 240.833,142.833 239.167,142.167 237.5,141.5C 231.798,141.465 226.298,141.798 221,142.5C 220,141.833 219,141.167 218,140.5C 216.424,139.987 215.091,140.654 214,142.5C 209.662,140.768 205.662,140.434 202,141.5C 200.333,140.833 198.667,140.167 197,139.5C 191.356,139.874 185.356,140.207 179,140.5C 174.181,139.129 169.181,138.129 164,137.5C 162.989,137.892 162.489,138.559 162.5,139.5C 161.252,138.96 160.085,138.293 159,137.5C 156.46,138.543 154.126,139.209 152,139.5C 150.042,138.048 148.042,137.715 146,138.5C 144.667,135.833 143.333,135.833 142,138.5C 140.667,137.167 139.333,137.167 138,138.5C 137.536,137.906 137.369,137.239 137.5,136.5C 141.807,132.528 146.141,128.528 150.5,124.5 Z"/></g>
<g><path style="opacity:1" fill="#45d197" d="M 137.5,136.5 C 137.369,137.239 137.536,137.906 138,138.5C 139.333,137.167 140.667,137.167 142,138.5C 143.333,135.833 144.667,135.833 146,138.5C 148.042,137.715 150.042,138.048 152,139.5C 154.126,139.209 156.46,138.543 159,137.5C 160.085,138.293 161.252,138.96 162.5,139.5C 162.489,138.559 162.989,137.892 164,137.5C 169.181,138.129 174.181,139.129 179,140.5C 185.356,140.207 191.356,139.874 197,139.5C 198.667,140.167 200.333,140.833 202,141.5C 205.662,140.434 209.662,140.768 214,142.5C 215.091,140.654 216.424,139.987 218,140.5C 219,141.167 220,141.833 221,142.5C 226.298,141.798 231.798,141.465 237.5,141.5C 239.167,142.167 240.833,142.833 242.5,143.5C 249.479,143.578 256.479,143.578 263.5,143.5C 265.029,143.529 266.196,144.196 267,145.5C 268.674,143.991 270.34,143.324 272,143.5C 273,144.167 274,144.833 275,145.5C 276.751,144.826 278.417,144.493 280,144.5C 281.316,147.028 282.483,147.028 283.5,144.5C 285.371,145.767 287.204,145.767 289,144.5C 290.667,145.167 292.333,145.833 294,146.5C 298.374,145.911 302.54,145.911 306.5,146.5C 306.5,150.5 306.5,154.5 306.5,158.5C 304.169,159.791 302.003,159.458 300,157.5C 295.032,158.342 290.198,158.342 285.5,157.5C 283.974,159.658 282.474,159.325 281,156.5C 279.324,157.061 277.991,158.061 277,159.5C 276.047,157.408 274.714,157.075 273,158.5C 272.125,156.487 270.791,156.487 269,158.5C 268,157.833 267,157.167 266,156.5C 261.342,156.678 256.009,157.011 250,157.5C 248.573,155.213 246.739,154.88 244.5,156.5C 242.618,155.907 240.785,155.24 239,154.5C 233.154,154.47 227.821,154.803 223,155.5C 221.337,154.01 219.67,153.344 218,153.5C 215.902,155.636 213.568,155.636 211,153.5C 209.221,154.479 207.555,154.146 206,152.5C 204.691,154.891 203.691,154.891 203,152.5C 197.444,152.239 191.777,152.572 186,153.5C 184.105,153.385 182.438,152.718 181,151.5C 179.149,153.781 177.482,153.781 176,151.5C 174.333,151.833 172.667,152.167 171,152.5C 168.506,150.099 166.173,150.099 164,152.5C 161.333,151.833 158.667,151.167 156,150.5C 154.691,152.891 153.691,152.891 153,150.5C 144.802,150.635 136.135,150.635 127,150.5C 126.005,149.934 125.172,149.267 124.5,148.5C 128.833,144.5 133.167,140.5 137.5,136.5 Z"/></g>
<g><path style="opacity:1" fill="#45cb9a" d="M 124.5,148.5 C 125.172,149.267 126.005,149.934 127,150.5C 136.135,150.635 144.802,150.635 153,150.5C 153.691,152.891 154.691,152.891 156,150.5C 158.667,151.167 161.333,151.833 164,152.5C 166.173,150.099 168.506,150.099 171,152.5C 172.667,152.167 174.333,151.833 176,151.5C 177.482,153.781 179.149,153.781 181,151.5C 182.438,152.718 184.105,153.385 186,153.5C 191.777,152.572 197.444,152.239 203,152.5C 203.691,154.891 204.691,154.891 206,152.5C 207.555,154.146 209.221,154.479 211,153.5C 213.568,155.636 215.902,155.636 218,153.5C 219.67,153.344 221.337,154.01 223,155.5C 227.821,154.803 233.154,154.47 239,154.5C 240.785,155.24 242.618,155.907 244.5,156.5C 246.739,154.88 248.573,155.213 250,157.5C 256.009,157.011 261.342,156.678 266,156.5C 267,157.167 268,157.833 269,158.5C 270.791,156.487 272.125,156.487 273,158.5C 274.714,157.075 276.047,157.408 277,159.5C 277.991,158.061 279.324,157.061 281,156.5C 282.474,159.325 283.974,159.658 285.5,157.5C 290.198,158.342 295.032,158.342 300,157.5C 302.003,159.458 304.169,159.791 306.5,158.5C 306.5,163.5 306.5,168.5 306.5,173.5C 303.694,173.377 300.694,172.71 297.5,171.5C 295.052,172.375 292.719,172.709 290.5,172.5C 288.552,170.461 286.385,170.461 284,172.5C 279.287,172.949 274.953,172.282 271,170.5C 268.626,173.288 267.293,172.954 267,169.5C 265.314,172.022 263.981,171.689 263,168.5C 262.667,169.167 262.333,169.833 262,170.5C 260.221,169.521 258.555,169.854 257,171.5C 256.667,170.833 256.333,170.167 256,169.5C 250.653,170.58 245.153,170.58 239.5,169.5C 239.5,165.167 239.5,160.833 239.5,156.5C 211.5,156.5 183.5,156.5 155.5,156.5C 142.5,156.5 129.5,156.5 116.5,156.5C 118.833,153.5 121.5,150.833 124.5,148.5 Z"/></g>
<g><path style="opacity:1" fill="#010001" d="M 155.5,157.5 C 183.167,157.5 210.833,157.5 238.5,157.5C 238.5,185.5 238.5,213.5 238.5,241.5C 234.833,241.5 231.167,241.5 227.5,241.5C 203.5,241.5 179.5,241.5 155.5,241.5C 155.5,238.5 155.5,235.5 155.5,232.5C 155.5,225.5 155.5,218.5 155.5,211.5C 155.5,196.5 155.5,181.5 155.5,166.5C 155.5,163.5 155.5,160.5 155.5,157.5 Z"/></g>
<g><path style="opacity:1" fill="#df2d99" d="M 116.5,156.5 C 129.5,156.5 142.5,156.5 155.5,156.5C 155.5,156.833 155.5,157.167 155.5,157.5C 155.5,160.5 155.5,163.5 155.5,166.5C 138.08,168.442 120.414,170.775 102.5,173.5C 105.983,166.873 110.65,161.207 116.5,156.5 Z"/></g>
<g><path style="opacity:1" fill="#44c49d" d="M 306.5,173.5 C 306.5,177.833 306.5,182.167 306.5,186.5C 304.876,186.36 303.71,187.027 303,188.5C 302.667,187.5 302.333,186.5 302,185.5C 299.643,186.52 296.976,186.52 294,185.5C 292.989,185.892 292.489,186.559 292.5,187.5C 291.203,185.633 289.703,185.3 288,186.5C 285.213,183.886 283.213,184.219 282,187.5C 280.846,185.043 279.512,185.043 278,187.5C 275.966,184.141 273.632,183.808 271,186.5C 269.488,184.043 268.154,184.043 267,186.5C 266.333,182.5 265.667,182.5 265,186.5C 263.503,183.532 261.837,183.199 260,185.5C 258.715,185.05 257.548,184.383 256.5,183.5C 255.5,184.167 254.5,184.833 253.5,185.5C 251.287,182.92 249.12,182.92 247,185.5C 244.806,183.822 242.306,182.822 239.5,182.5C 239.5,178.167 239.5,173.833 239.5,169.5C 245.153,170.58 250.653,170.58 256,169.5C 256.333,170.167 256.667,170.833 257,171.5C 258.555,169.854 260.221,169.521 262,170.5C 262.333,169.833 262.667,169.167 263,168.5C 263.981,171.689 265.314,172.022 267,169.5C 267.293,172.954 268.626,173.288 271,170.5C 274.953,172.282 279.287,172.949 284,172.5C 286.385,170.461 288.552,170.461 290.5,172.5C 292.719,172.709 295.052,172.375 297.5,171.5C 300.694,172.71 303.694,173.377 306.5,173.5 Z"/></g>
<g><path style="opacity:1" fill="#1c4d40" d="M 155.5,157.5 C 155.5,157.167 155.5,156.833 155.5,156.5C 183.5,156.5 211.5,156.5 239.5,156.5C 239.5,160.833 239.5,165.167 239.5,169.5C 239.5,173.833 239.5,178.167 239.5,182.5C 239.5,187.167 239.5,191.833 239.5,196.5C 239.5,200.5 239.5,204.5 239.5,208.5C 239.5,212.167 239.5,215.833 239.5,219.5C 239.5,223.167 239.5,226.833 239.5,230.5C 239.5,234.167 239.5,237.833 239.5,241.5C 239.167,241.5 238.833,241.5 238.5,241.5C 238.5,213.5 238.5,185.5 238.5,157.5C 210.833,157.5 183.167,157.5 155.5,157.5 Z"/></g>
<g><path style="opacity:1" fill="#43bea0" d="M 239.5,182.5 C 242.306,182.822 244.806,183.822 247,185.5C 249.12,182.92 251.287,182.92 253.5,185.5C 254.5,184.833 255.5,184.167 256.5,183.5C 257.548,184.383 258.715,185.05 260,185.5C 261.837,183.199 263.503,183.532 265,186.5C 265.667,182.5 266.333,182.5 267,186.5C 268.154,184.043 269.488,184.043 271,186.5C 273.632,183.808 275.966,184.141 278,187.5C 279.512,185.043 280.846,185.043 282,187.5C 283.213,184.219 285.213,183.886 288,186.5C 289.703,185.3 291.203,185.633 292.5,187.5C 292.489,186.559 292.989,185.892 294,185.5C 296.976,186.52 299.643,186.52 302,185.5C 302.333,186.5 302.667,187.5 303,188.5C 303.71,187.027 304.876,186.36 306.5,186.5C 306.354,190.519 306.021,194.519 305.5,198.5C 298.931,199.031 292.098,199.364 285,199.5C 282.676,198.155 280.342,197.822 278,198.5C 276.209,196.487 274.875,196.487 274,198.5C 271.868,197.22 269.702,197.22 267.5,198.5C 262.192,196.056 257.026,195.722 252,197.5C 249.316,196.65 246.649,195.65 244,194.5C 243.667,195.167 243.333,195.833 243,196.5C 242.014,195.829 240.847,195.829 239.5,196.5C 239.5,191.833 239.5,187.167 239.5,182.5 Z"/></g>
<g><path style="opacity:1" fill="#fd39aa" d="M 155.5,166.5 C 155.5,181.5 155.5,196.5 155.5,211.5C 153.669,212.052 152.003,212.052 150.5,211.5C 149.808,212.025 149.308,212.692 149,213.5C 146.219,213.131 143.552,213.131 141,213.5C 138.832,211.545 136.498,210.879 134,211.5C 131.059,211.941 129.226,213.607 128.5,216.5C 128.323,213.922 127.157,213.922 125,216.5C 122.263,216.992 119.429,216.992 116.5,216.5C 114.327,218.308 112.493,218.308 111,216.5C 110.333,217.833 109.333,218.833 108,219.5C 106.23,218.937 104.23,217.937 102,216.5C 100.053,219.986 97.7195,220.319 95,217.5C 94.2917,218.381 93.4584,219.047 92.5,219.5C 92.5,214.5 92.5,209.5 92.5,204.5C 93.4256,193.39 96.759,183.056 102.5,173.5C 120.414,170.775 138.08,168.442 155.5,166.5 Z"/></g>
<g><path style="opacity:1" fill="#43b8a3" d="M 305.5,198.5 C 304.363,203.241 303.03,207.907 301.5,212.5C 297.582,211.359 293.749,211.692 290,213.5C 289.612,212.572 288.945,211.905 288,211.5C 286.219,211.739 284.386,212.072 282.5,212.5C 281.808,211.975 281.308,211.308 281,210.5C 279.417,210.493 277.751,210.826 276,211.5C 275,210.833 274,210.167 273,209.5C 272.261,210.574 271.261,211.241 270,211.5C 268.85,210.576 267.85,210.576 267,211.5C 266.667,210.833 266.333,210.167 266,209.5C 264.526,211.915 262.86,211.915 261,209.5C 257.59,210.068 254.256,210.402 251,210.5C 247.138,208.928 243.305,208.261 239.5,208.5C 239.5,204.5 239.5,200.5 239.5,196.5C 240.847,195.829 242.014,195.829 243,196.5C 243.333,195.833 243.667,195.167 244,194.5C 246.649,195.65 249.316,196.65 252,197.5C 257.026,195.722 262.192,196.056 267.5,198.5C 269.702,197.22 271.868,197.22 274,198.5C 274.875,196.487 276.209,196.487 278,198.5C 280.342,197.822 282.676,198.155 285,199.5C 292.098,199.364 298.931,199.031 305.5,198.5 Z"/></g>
<g><path style="opacity:1" fill="#fe41a6" d="M 155.5,211.5 C 155.5,218.5 155.5,225.5 155.5,232.5C 154.25,232.423 153.417,231.756 153,230.5C 152.667,231.167 152.333,231.833 152,232.5C 150.488,230.043 149.154,230.043 148,232.5C 147,232.167 146,231.833 145,231.5C 144.667,232.167 144.333,232.833 144,233.5C 142.899,231.606 141.566,230.939 140,231.5C 138.676,232.88 137.343,233.214 136,232.5C 135.085,233.328 134.419,234.328 134,235.5C 133.261,234.426 132.261,233.759 131,233.5C 128.1,235.42 125.1,235.753 122,234.5C 121.072,236.335 119.906,236.668 118.5,235.5C 115.724,235.946 113.224,236.946 111,238.5C 109.611,234.728 108.611,234.728 108,238.5C 107.333,235.833 106.667,235.833 106,238.5C 105.667,237.833 105.333,237.167 105,236.5C 104.16,239.464 103.16,239.797 102,237.5C 100.868,239.522 99.2009,239.855 97,238.5C 95.6739,238.755 94.6739,239.422 94,240.5C 92.5398,233.677 92.0398,226.677 92.5,219.5C 93.4584,219.047 94.2917,218.381 95,217.5C 97.7195,220.319 100.053,219.986 102,216.5C 104.23,217.937 106.23,218.937 108,219.5C 109.333,218.833 110.333,217.833 111,216.5C 112.493,218.308 114.327,218.308 116.5,216.5C 119.429,216.992 122.263,216.992 125,216.5C 127.157,213.922 128.323,213.922 128.5,216.5C 129.226,213.607 131.059,211.941 134,211.5C 136.498,210.879 138.832,211.545 141,213.5C 143.552,213.131 146.219,213.131 149,213.5C 149.308,212.692 149.808,212.025 150.5,211.5C 152.003,212.052 153.669,212.052 155.5,211.5 Z"/></g>
<g><path style="opacity:1" fill="#40aea0" d="M 239.5,208.5 C 243.305,208.261 247.138,208.928 251,210.5C 254.256,210.402 257.59,210.068 261,209.5C 262.86,211.915 264.526,211.915 266,209.5C 266.333,210.167 266.667,210.833 267,211.5C 267.85,210.576 268.85,210.576 270,211.5C 271.261,211.241 272.261,210.574 273,209.5C 274,210.167 275,210.833 276,211.5C 277.751,210.826 279.417,210.493 281,210.5C 281.308,211.308 281.808,211.975 282.5,212.5C 284.386,212.072 286.219,211.739 288,211.5C 288.945,211.905 289.612,212.572 290,213.5C 293.749,211.692 297.582,211.359 301.5,212.5C 300.441,215.618 299.108,218.618 297.5,221.5C 291.996,222.709 286.83,222.709 282,221.5C 280.075,223.973 278.242,223.973 276.5,221.5C 275.914,221.709 275.414,222.043 275,222.5C 273,221.833 271,221.167 269,220.5C 265.049,220.466 261.049,220.799 257,221.5C 250.711,220.228 244.878,219.561 239.5,219.5C 239.5,215.833 239.5,212.167 239.5,208.5 Z"/></g>
<g><path style="opacity:1" fill="#3a9b8f" d="M 239.5,219.5 C 244.878,219.561 250.711,220.228 257,221.5C 261.049,220.799 265.049,220.466 269,220.5C 271,221.167 273,221.833 275,222.5C 275.414,222.043 275.914,221.709 276.5,221.5C 278.242,223.973 280.075,223.973 282,221.5C 286.83,222.709 291.996,222.709 297.5,221.5C 295.555,225.736 292.888,229.403 289.5,232.5C 280.111,231.913 271.611,231.913 264,232.5C 255.555,230.685 247.389,230.018 239.5,230.5C 239.5,226.833 239.5,223.167 239.5,219.5 Z"/></g>
<g><path style="opacity:1" fill="#fc46a2" d="M 92.5,204.5 C 92.5,209.5 92.5,214.5 92.5,219.5C 92.0398,226.677 92.5398,233.677 94,240.5C 94.6739,239.422 95.6739,238.755 97,238.5C 99.2009,239.855 100.868,239.522 102,237.5C 103.16,239.797 104.16,239.464 105,236.5C 105.333,237.167 105.667,237.833 106,238.5C 106.667,235.833 107.333,235.833 108,238.5C 108.611,234.728 109.611,234.728 111,238.5C 113.224,236.946 115.724,235.946 118.5,235.5C 119.906,236.668 121.072,236.335 122,234.5C 125.1,235.753 128.1,235.42 131,233.5C 132.261,233.759 133.261,234.426 134,235.5C 134.419,234.328 135.085,233.328 136,232.5C 137.343,233.214 138.676,232.88 140,231.5C 141.566,230.939 142.899,231.606 144,233.5C 144.333,232.833 144.667,232.167 145,231.5C 146,231.833 147,232.167 148,232.5C 149.154,230.043 150.488,230.043 152,232.5C 152.333,231.833 152.667,231.167 153,230.5C 153.417,231.756 154.25,232.423 155.5,232.5C 155.5,235.5 155.5,238.5 155.5,241.5C 179.5,241.5 203.5,241.5 227.5,241.5C 226.828,242.267 225.995,242.934 225,243.5C 222.568,242.707 220.234,242.374 218,242.5C 217.333,246.5 216.667,246.5 216,242.5C 213.441,241.976 210.941,242.642 208.5,244.5C 206.048,241.716 204.048,242.049 202.5,245.5C 201.914,245.291 201.414,244.957 201,244.5C 198.371,244.928 196.038,245.928 194,247.5C 187.259,247.586 180.592,247.586 174,247.5C 173.667,248.167 173.333,248.833 173,249.5C 168.87,249.587 164.703,249.587 160.5,249.5C 158.821,250.782 156.987,251.782 155,252.5C 154.581,251.328 153.915,250.328 153,249.5C 151,250.833 149,252.167 147,253.5C 145.17,251.243 142.837,251.243 140,253.5C 138.984,252.366 138.317,252.699 138,254.5C 136.667,254.5 135.333,254.5 134,254.5C 133.667,253.833 133.333,253.167 133,252.5C 131.921,254.394 130.587,254.727 129,253.5C 128.395,255.481 127.395,255.815 126,254.5C 125.333,257.167 124.667,257.167 124,254.5C 122,257.167 120,257.167 118,254.5C 116.536,258.107 114.536,258.774 112,256.5C 110.732,256.616 109.398,256.949 108,257.5C 106.221,254.724 105.221,255.057 105,258.5C 104.667,257.833 104.333,257.167 104,256.5C 103,257.5 102,258.5 101,259.5C 97.7175,258.276 94.5508,258.276 91.5,259.5C 91.1698,240.992 91.5032,222.659 92.5,204.5 Z"/></g>
<g><path style="opacity:1" fill="#368c81" d="M 239.5,230.5 C 247.389,230.018 255.555,230.685 264,232.5C 271.611,231.913 280.111,231.913 289.5,232.5C 287.57,236.1 284.903,239.1 281.5,241.5C 267.5,241.5 253.5,241.5 239.5,241.5C 239.5,237.833 239.5,234.167 239.5,230.5 Z"/></g>
<g><path style="opacity:1" fill="#fe4e9f" d="M 227.5,241.5 C 231.167,241.5 234.833,241.5 238.5,241.5C 238.833,241.5 239.167,241.5 239.5,241.5C 253.5,241.5 267.5,241.5 281.5,241.5C 275.465,248.536 268.798,254.869 261.5,260.5C 259.193,260.986 257.027,260.986 255,260.5C 254.692,261.308 254.192,261.975 253.5,262.5C 252.304,262.154 252.304,261.654 253.5,261C 250.642,260.933 247.975,261.766 245.5,263.5C 244.252,262.96 243.085,262.293 242,261.5C 240,264.167 238,264.167 236,261.5C 235.418,264.668 234.418,265.001 233,262.5C 231.364,266.011 230.197,266.344 229.5,263.5C 225.963,265.174 222.63,266.508 219.5,267.5C 218.252,266.96 217.085,266.293 216,265.5C 215.667,266.167 215.333,266.833 215,267.5C 212.553,267.039 210.053,266.706 207.5,266.5C 206.833,267.167 206.167,267.833 205.5,268.5C 200.2,268.483 194.867,268.483 189.5,268.5C 187.598,270.151 185.598,270.484 183.5,269.5C 181.267,269.864 179.434,270.864 178,272.5C 176.667,271.833 175.333,271.167 174,270.5C 172.628,273.785 170.961,274.451 169,272.5C 166.669,274.055 164.669,273.721 163,271.5C 161.956,272.623 161.29,273.956 161,275.5C 160.667,274.833 160.333,274.167 160,273.5C 158.68,273.799 157.18,273.966 155.5,274C 156.696,274.654 156.696,275.154 155.5,275.5C 154.522,275.023 153.689,274.357 153,273.5C 152,274.833 151,274.833 150,273.5C 147.503,277.799 144.503,278.465 141,275.5C 138.957,277.521 136.957,277.854 135,276.5C 134.085,277.328 133.419,278.328 133,279.5C 131.105,275.702 129.939,275.535 129.5,279C 128.328,279.353 127.162,279.187 126,278.5C 123.418,280.906 120.752,280.906 118,278.5C 116.295,279.763 114.628,280.097 113,279.5C 111.846,281.957 110.512,281.957 109,279.5C 107.482,279.057 106.315,279.724 105.5,281.5C 104.094,280.332 102.928,280.665 102,282.5C 101.311,281.643 100.478,280.977 99.5,280.5C 99.6931,281.688 99.1931,283.022 98,284.5C 97.6411,281.456 96.9745,281.122 96,283.5C 95.5774,282.044 94.7441,281.544 93.5,282C 94.4506,282.718 94.6172,283.551 94,284.5C 93.2917,283.619 92.4584,282.953 91.5,282.5C 91.5,274.833 91.5,267.167 91.5,259.5C 94.5508,258.276 97.7175,258.276 101,259.5C 102,258.5 103,257.5 104,256.5C 104.333,257.167 104.667,257.833 105,258.5C 105.221,255.057 106.221,254.724 108,257.5C 109.398,256.949 110.732,256.616 112,256.5C 114.536,258.774 116.536,258.107 118,254.5C 120,257.167 122,257.167 124,254.5C 124.667,257.167 125.333,257.167 126,254.5C 127.395,255.815 128.395,255.481 129,253.5C 130.587,254.727 131.921,254.394 133,252.5C 133.333,253.167 133.667,253.833 134,254.5C 135.333,254.5 136.667,254.5 138,254.5C 138.317,252.699 138.984,252.366 140,253.5C 142.837,251.243 145.17,251.243 147,253.5C 149,252.167 151,250.833 153,249.5C 153.915,250.328 154.581,251.328 155,252.5C 156.987,251.782 158.821,250.782 160.5,249.5C 164.703,249.587 168.87,249.587 173,249.5C 173.333,248.833 173.667,248.167 174,247.5C 180.592,247.586 187.259,247.586 194,247.5C 196.038,245.928 198.371,244.928 201,244.5C 201.414,244.957 201.914,245.291 202.5,245.5C 204.048,242.049 206.048,241.716 208.5,244.5C 210.941,242.642 213.441,241.976 216,242.5C 216.667,246.5 217.333,246.5 218,242.5C 220.234,242.374 222.568,242.707 225,243.5C 225.995,242.934 226.828,242.267 227.5,241.5 Z"/></g>
<g><path style="opacity:1" fill="#fb5499" d="M 261.5,260.5 C 249.917,272.917 237.251,284.084 223.5,294C 213.813,299.344 203.48,302.677 192.5,304C 158.835,304.5 125.168,304.667 91.5,304.5C 91.5,297.167 91.5,289.833 91.5,282.5C 92.4584,282.953 93.2917,283.619 94,284.5C 94.6172,283.551 94.4506,282.718 93.5,282C 94.7441,281.544 95.5774,282.044 96,283.5C 96.9745,281.122 97.6411,281.456 98,284.5C 99.1931,283.022 99.6931,281.688 99.5,280.5C 100.478,280.977 101.311,281.643 102,282.5C 102.928,280.665 104.094,280.332 105.5,281.5C 106.315,279.724 107.482,279.057 109,279.5C 110.512,281.957 111.846,281.957 113,279.5C 114.628,280.097 116.295,279.763 118,278.5C 120.752,280.906 123.418,280.906 126,278.5C 127.162,279.187 128.328,279.353 129.5,279C 129.939,275.535 131.105,275.702 133,279.5C 133.419,278.328 134.085,277.328 135,276.5C 136.957,277.854 138.957,277.521 141,275.5C 144.503,278.465 147.503,277.799 150,273.5C 151,274.833 152,274.833 153,273.5C 153.689,274.357 154.522,275.023 155.5,275.5C 156.696,275.154 156.696,274.654 155.5,274C 157.18,273.966 158.68,273.799 160,273.5C 160.333,274.167 160.667,274.833 161,275.5C 161.29,273.956 161.956,272.623 163,271.5C 164.669,273.721 166.669,274.055 169,272.5C 170.961,274.451 172.628,273.785 174,270.5C 175.333,271.167 176.667,271.833 178,272.5C 179.434,270.864 181.267,269.864 183.5,269.5C 185.598,270.484 187.598,270.151 189.5,268.5C 194.867,268.483 200.2,268.483 205.5,268.5C 206.167,267.833 206.833,267.167 207.5,266.5C 210.053,266.706 212.553,267.039 215,267.5C 215.333,266.833 215.667,266.167 216,265.5C 217.085,266.293 218.252,266.96 219.5,267.5C 222.63,266.508 225.963,265.174 229.5,263.5C 230.197,266.344 231.364,266.011 233,262.5C 234.418,265.001 235.418,264.668 236,261.5C 238,264.167 240,264.167 242,261.5C 243.085,262.293 244.252,262.96 245.5,263.5C 247.975,261.766 250.642,260.933 253.5,261C 252.304,261.654 252.304,262.154 253.5,262.5C 254.192,261.975 254.692,261.308 255,260.5C 257.027,260.986 259.193,260.986 261.5,260.5 Z"/></g>
</svg>
