<?xml version="1.0" encoding="UTF-8"?>
<!DOCTYPE svg PUBLIC "-//W3C//DTD SVG 1.1//EN" "http://www.w3.org/Graphics/SVG/1.1/DTD/svg11.dtd">
<svg xmlns="http://www.w3.org/2000/svg" version="1.1" width="399px" height="399px" style="shape-rendering:geometricPrecision; text-rendering:geometricPrecision; image-rendering:optimizeQuality; fill-rule:evenodd; clip-rule:evenodd" xmlns:xlink="http://www.w3.org/1999/xlink">
<g><path style="opacity:0.995" fill="#fefffe" d="M 180.5,-0.5 C 192.833,-0.5 205.167,-0.5 217.5,-0.5C 304.775,11.9354 362.609,59.9354 391,143.5C 394.232,155.831 396.732,168.164 398.5,180.5C 398.5,192.833 398.5,205.167 398.5,217.5C 386.065,304.775 338.065,362.609 254.5,391C 242.169,394.232 229.836,396.732 217.5,398.5C 205.167,398.5 192.833,398.5 180.5,398.5C 93.2248,386.065 35.3915,338.065 7,254.5C 3.76758,242.169 1.26758,229.836 -0.5,217.5C -0.5,205.167 -0.5,192.833 -0.5,180.5C 11.9354,93.2248 59.9354,35.3915 143.5,7C 155.831,3.76758 168.164,1.26758 180.5,-0.5 Z"/></g>
<g><path style="opacity:1" fill="#2d353e" d="M 239.5,95.5 C 212.833,95.5 186.167,95.5 159.5,95.5C 159.5,90.1667 159.5,84.8333 159.5,79.5C 186.167,79.5 212.833,79.5 239.5,79.5C 239.5,84.8333 239.5,90.1667 239.5,95.5 Z"/></g>
<g><path style="opacity:1" fill="#fefefe" d="M 159.5,95.5 C 186.167,95.5 212.833,95.5 239.5,95.5C 239.5,100.833 239.5,106.167 239.5,111.5C 250.167,111.5 260.833,111.5 271.5,111.5C 271.5,116.833 271.5,122.167 271.5,127.5C 276.833,127.5 282.167,127.5 287.5,127.5C 287.5,138.167 287.5,148.833 287.5,159.5C 292.833,159.5 298.167,159.5 303.5,159.5C 303.5,186.167 303.5,212.833 303.5,239.5C 298.167,239.5 292.833,239.5 287.5,239.5C 287.5,250.167 287.5,260.833 287.5,271.5C 282.167,271.5 276.833,271.5 271.5,271.5C 271.5,276.833 271.5,282.167 271.5,287.5C 260.833,287.5 250.167,287.5 239.5,287.5C 239.5,292.833 239.5,298.167 239.5,303.5C 212.833,303.5 186.167,303.5 159.5,303.5C 159.5,298.167 159.5,292.833 159.5,287.5C 148.833,287.5 138.167,287.5 127.5,287.5C 127.5,282.167 127.5,276.833 127.5,271.5C 122.167,271.5 116.833,271.5 111.5,271.5C 111.5,260.833 111.5,250.167 111.5,239.5C 106.167,239.5 100.833,239.5 95.5,239.5C 95.5,212.833 95.5,186.167 95.5,159.5C 100.833,159.5 106.167,159.5 111.5,159.5C 111.5,148.833 111.5,138.167 111.5,127.5C 116.833,127.5 122.167,127.5 127.5,127.5C 127.5,122.167 127.5,116.833 127.5,111.5C 138.167,111.5 148.833,111.5 159.5,111.5C 159.5,106.167 159.5,100.833 159.5,95.5 Z"/></g>
<g><path style="opacity:1" fill="#2d353e" d="M 159.5,95.5 C 159.5,100.833 159.5,106.167 159.5,111.5C 148.833,111.5 138.167,111.5 127.5,111.5C 127.5,106.167 127.5,100.833 127.5,95.5C 138.167,95.5 148.833,95.5 159.5,95.5 Z"/></g>
<g><path style="opacity:1" fill="#2d353e" d="M 239.5,95.5 C 250.167,95.5 260.833,95.5 271.5,95.5C 271.5,100.833 271.5,106.167 271.5,111.5C 260.833,111.5 250.167,111.5 239.5,111.5C 239.5,106.167 239.5,100.833 239.5,95.5 Z"/></g>
<g><path style="opacity:1" fill="#2d353e" d="M 127.5,111.5 C 127.5,116.833 127.5,122.167 127.5,127.5C 122.167,127.5 116.833,127.5 111.5,127.5C 111.5,122.167 111.5,116.833 111.5,111.5C 116.833,111.5 122.167,111.5 127.5,111.5 Z"/></g>
<g><path style="opacity:1" fill="#2d353e" d="M 271.5,111.5 C 276.833,111.5 282.167,111.5 287.5,111.5C 287.5,116.833 287.5,122.167 287.5,127.5C 287.5,122.167 287.5,116.833 287.5,111.5C 282.167,111.5 276.833,111.5 271.5,111.5 Z"/></g>
<g><path style="opacity:1" fill="#2d353e" d="M 111.5,127.5 C 111.5,138.167 111.5,148.833 111.5,159.5C 106.167,159.5 100.833,159.5 95.5,159.5C 95.5,148.833 95.5,138.167 95.5,127.5C 100.833,127.5 106.167,127.5 111.5,127.5 Z"/></g>
<g><path style="opacity:1" fill="#2d353e" d="M 239.5,143.5 C 212.833,143.5 186.167,143.5 159.5,143.5C 159.5,138.167 159.5,132.833 159.5,127.5C 186.167,127.5 212.833,127.5 239.5,127.5C 239.5,132.833 239.5,138.167 239.5,143.5 Z"/></g>
<g><path style="opacity:1" fill="#2d353e" d="M 287.5,127.5 C 292.833,127.5 298.167,127.5 303.5,127.5C 303.5,138.167 303.5,148.833 303.5,159.5C 298.167,159.5 292.833,159.5 287.5,159.5C 287.5,148.833 287.5,138.167 287.5,127.5 Z"/></g>
<g><path style="opacity:1" fill="#2d353e" d="M 159.5,143.5 C 159.5,148.833 159.5,154.167 159.5,159.5C 154.167,159.5 148.833,159.5 143.5,159.5C 143.5,154.167 143.5,148.833 143.5,143.5C 148.833,143.5 154.167,143.5 159.5,143.5 Z"/></g>
<g><path style="opacity:1" fill="#2d353e" d="M 239.5,143.5 C 244.833,143.5 250.167,143.5 255.5,143.5C 255.5,148.833 255.5,154.167 255.5,159.5C 250.167,159.5 244.833,159.5 239.5,159.5C 239.5,154.167 239.5,148.833 239.5,143.5 Z"/></g>
<g><path style="opacity:1" fill="#2d353e" d="M 95.5,159.5 C 95.5,186.167 95.5,212.833 95.5,239.5C 90.1667,239.5 84.8333,239.5 79.5,239.5C 79.5,212.833 79.5,186.167 79.5,159.5C 84.8333,159.5 90.1667,159.5 95.5,159.5 Z"/></g>
<g><path style="opacity:1" fill="#2d353e" d="M 143.5,159.5 C 143.5,186.167 143.5,212.833 143.5,239.5C 138.167,239.5 132.833,239.5 127.5,239.5C 127.5,212.833 127.5,186.167 127.5,159.5C 132.833,159.5 138.167,159.5 143.5,159.5 Z"/></g>
<g><path style="opacity:1" fill="#2d353e" d="M 303.5,159.5 C 308.833,159.5 314.167,159.5 319.5,159.5C 319.5,186.167 319.5,212.833 319.5,239.5C 314.167,239.5 308.833,239.5 303.5,239.5C 303.5,212.833 303.5,186.167 303.5,159.5 Z"/></g>
<g><path style="opacity:1" fill="#2e353e" d="M 187.5,183.5 C 198.167,183.5 208.833,183.5 219.5,183.5C 219.5,186.167 219.5,188.833 219.5,191.5C 235.5,191.5 251.5,191.5 267.5,191.5C 267.5,196.833 267.5,202.167 267.5,207.5C 251.5,207.5 235.5,207.5 219.5,207.5C 219.5,210.167 219.5,212.833 219.5,215.5C 208.833,215.5 198.167,215.5 187.5,215.5C 187.5,204.833 187.5,194.167 187.5,183.5 Z"/></g>
<g><path style="opacity:1" fill="#2d353e" d="M 95.5,239.5 C 100.833,239.5 106.167,239.5 111.5,239.5C 111.5,250.167 111.5,260.833 111.5,271.5C 106.167,271.5 100.833,271.5 95.5,271.5C 95.5,260.833 95.5,250.167 95.5,239.5 Z"/></g>
<g><path style="opacity:1" fill="#2d353e" d="M 143.5,239.5 C 148.833,239.5 154.167,239.5 159.5,239.5C 159.5,244.833 159.5,250.167 159.5,255.5C 159.5,250.167 159.5,244.833 159.5,239.5C 154.167,239.5 148.833,239.5 143.5,239.5 Z"/></g>
<g><path style="opacity:1" fill="#2d353e" d="M 239.5,255.5 C 239.5,250.167 239.5,244.833 239.5,239.5C 244.833,239.5 250.167,239.5 255.5,239.5C 255.5,244.833 255.5,250.167 255.5,255.5C 250.167,255.5 244.833,255.5 239.5,255.5 Z"/></g>
<g><path style="opacity:1" fill="#2d353e" d="M 303.5,239.5 C 303.5,250.167 303.5,260.833 303.5,271.5C 298.167,271.5 292.833,271.5 287.5,271.5C 287.5,260.833 287.5,250.167 287.5,239.5C 292.833,239.5 298.167,239.5 303.5,239.5 Z"/></g>
<g><path style="opacity:1" fill="#2d353e" d="M 159.5,255.5 C 186.167,255.5 212.833,255.5 239.5,255.5C 239.5,260.833 239.5,266.167 239.5,271.5C 212.833,271.5 186.167,271.5 159.5,271.5C 159.5,266.167 159.5,260.833 159.5,255.5 Z"/></g>
<g><path style="opacity:1" fill="#2d353e" d="M 111.5,271.5 C 116.833,271.5 122.167,271.5 127.5,271.5C 127.5,276.833 127.5,282.167 127.5,287.5C 122.167,287.5 116.833,287.5 111.5,287.5C 111.5,282.167 111.5,276.833 111.5,271.5 Z"/></g>
<g><path style="opacity:1" fill="#2d353e" d="M 287.5,271.5 C 287.5,276.833 287.5,282.167 287.5,287.5C 282.167,287.5 276.833,287.5 271.5,287.5C 271.5,282.167 271.5,276.833 271.5,271.5C 276.833,271.5 282.167,271.5 287.5,271.5 Z"/></g>
<g><path style="opacity:1" fill="#2d353e" d="M 127.5,287.5 C 138.167,287.5 148.833,287.5 159.5,287.5C 159.5,292.833 159.5,298.167 159.5,303.5C 148.833,303.5 138.167,303.5 127.5,303.5C 127.5,298.167 127.5,292.833 127.5,287.5 Z"/></g>
<g><path style="opacity:1" fill="#2d353e" d="M 271.5,287.5 C 271.5,292.833 271.5,298.167 271.5,303.5C 260.833,303.5 250.167,303.5 239.5,303.5C 239.5,298.167 239.5,292.833 239.5,287.5C 250.167,287.5 260.833,287.5 271.5,287.5 Z"/></g>
<g><path style="opacity:1" fill="#2d353e" d="M 159.5,303.5 C 186.167,303.5 212.833,303.5 239.5,303.5C 239.5,308.833 239.5,314.167 239.5,319.5C 212.833,319.5 186.167,319.5 159.5,319.5C 159.5,314.167 159.5,308.833 159.5,303.5 Z"/></g>
</svg>
